<svg width="40" height="40" viewBox="0 0 40 40" fill="none" xmlns="http://www.w3.org/2000/svg">
<path fill-rule="evenodd" clip-rule="evenodd" d="M3.63937 36.3587C6.44921 39.1666 10.9649 39.1666 20 39.1666C29.0352 39.1666 33.5528 39.1666 36.3588 36.3587C39.1667 33.5546 39.1667 29.0351 39.1667 20C39.1667 10.9648 39.1667 6.44723 36.3588 3.63931C33.5547 0.833313 29.0352 0.833313 20 0.833313C10.9649 0.833313 6.44729 0.833313 3.63937 3.63931C0.833374 6.44915 0.833374 10.9648 0.833374 20C0.833374 29.0351 0.833374 33.5527 3.63937 36.3587ZM15.2084 13.7708C13.9764 13.7708 12.772 14.1361 11.7476 14.8206C10.7233 15.5051 9.92485 16.4779 9.45337 17.6162C8.9819 18.7544 8.85855 20.0069 9.0989 21.2152C9.33925 22.4236 9.93252 23.5335 10.8037 24.4047C11.6749 25.2758 12.7848 25.8691 13.9931 26.1095C15.2015 26.3498 16.4539 26.2264 17.5922 25.755C18.7304 25.2835 19.7033 24.4851 20.3877 23.4607C21.0722 22.4363 21.4375 21.232 21.4375 20C21.4375 19.6187 21.589 19.2531 21.8586 18.9835C22.1282 18.7139 22.4938 18.5625 22.875 18.5625C23.2563 18.5625 23.6219 18.7139 23.8915 18.9835C24.1611 19.2531 24.3125 19.6187 24.3125 20C24.3125 21.8006 23.7786 23.5608 22.7782 25.058C21.7778 26.5552 20.356 27.7221 18.6924 28.4111C17.0288 29.1002 15.1983 29.2805 13.4322 28.9292C11.6662 28.5779 10.044 27.7108 8.77076 26.4376C7.49752 25.1644 6.63043 23.5421 6.27914 21.7761C5.92786 20.0101 6.10815 18.1795 6.79722 16.516C7.48629 14.8524 8.6532 13.4305 10.1504 12.4301C11.6475 11.4298 13.4077 10.8958 15.2084 10.8958C15.5896 10.8958 15.9553 11.0473 16.2248 11.3168C16.4944 11.5864 16.6459 11.9521 16.6459 12.3333C16.6459 12.7146 16.4944 13.0802 16.2248 13.3498C15.9553 13.6194 15.5896 13.7708 15.2084 13.7708ZM31.0209 20C31.0209 21.6521 30.3646 23.2365 29.1964 24.4047C28.0282 25.5729 26.4438 26.2291 24.7917 26.2291C24.4105 26.2291 24.0448 26.3806 23.7752 26.6502C23.5057 26.9198 23.3542 27.2854 23.3542 27.6666C23.3542 28.0479 23.5057 28.4135 23.7752 28.6831C24.0448 28.9527 24.4105 29.1041 24.7917 29.1041C26.5923 29.1041 28.3525 28.5702 29.8497 27.5698C31.3469 26.5694 32.5138 25.1476 33.2029 23.484C33.8919 21.8204 34.0722 19.9899 33.7209 18.2238C33.3697 16.4578 32.5026 14.8356 31.2293 13.5624C29.9561 12.2891 28.3339 11.422 26.5678 11.0707C24.8018 10.7195 22.9713 10.8998 21.3077 11.5888C19.6441 12.2779 18.2222 13.4448 17.2219 14.942C16.2215 16.4391 15.6875 18.1993 15.6875 20C15.6875 20.3812 15.839 20.7469 16.1086 21.0164C16.3782 21.286 16.7438 21.4375 17.125 21.4375C17.5063 21.4375 17.8719 21.286 18.1415 21.0164C18.4111 20.7469 18.5625 20.3812 18.5625 20C18.5625 18.3479 19.2188 16.7635 20.387 15.5953C21.5552 14.4271 23.1396 13.7708 24.7917 13.7708C26.4438 13.7708 28.0282 14.4271 29.1964 15.5953C30.3646 16.7635 31.0209 18.3479 31.0209 20Z" fill="#633CFF"/>
</svg>
